<mxfile host="app.diagrams.net" modified="2023-08-08T17:48:25.204Z" agent="Mozilla/5.0 (Windows NT 10.0; Win64; x64) AppleWebKit/537.36 (KHTML, like Gecko) Chrome/115.0.0.0 Safari/537.36" etag="_6jKoA8uxFJDcQ8zuBxp" version="21.6.7" type="github">
  <diagram name="Page-1" id="ywu62AC26IGwu2iTXNiO">
    <mxGraphModel dx="1060" dy="676" grid="1" gridSize="10" guides="1" tooltips="1" connect="1" arrows="1" fold="1" page="1" pageScale="1" pageWidth="850" pageHeight="1100" math="0" shadow="0">
      <root>
        <mxCell id="0" />
        <mxCell id="1" parent="0" />
        <mxCell id="VR4Ue93Jd8P-YJn3SoLv-21" style="edgeStyle=orthogonalEdgeStyle;rounded=0;orthogonalLoop=1;jettySize=auto;html=1;exitX=0;exitY=0.5;exitDx=0;exitDy=0;entryX=1;entryY=0.5;entryDx=0;entryDy=0;" edge="1" parent="1" source="VR4Ue93Jd8P-YJn3SoLv-1" target="VR4Ue93Jd8P-YJn3SoLv-19">
          <mxGeometry relative="1" as="geometry" />
        </mxCell>
        <mxCell id="VR4Ue93Jd8P-YJn3SoLv-24" value="Damage" style="edgeLabel;html=1;align=center;verticalAlign=middle;resizable=0;points=[];" vertex="1" connectable="0" parent="VR4Ue93Jd8P-YJn3SoLv-21">
          <mxGeometry x="-0.0143" y="1" relative="1" as="geometry">
            <mxPoint as="offset" />
          </mxGeometry>
        </mxCell>
        <mxCell id="VR4Ue93Jd8P-YJn3SoLv-44" style="edgeStyle=orthogonalEdgeStyle;rounded=0;orthogonalLoop=1;jettySize=auto;html=1;exitX=0.75;exitY=1;exitDx=0;exitDy=0;entryX=0;entryY=0.25;entryDx=0;entryDy=0;" edge="1" parent="1" source="VR4Ue93Jd8P-YJn3SoLv-1" target="VR4Ue93Jd8P-YJn3SoLv-7">
          <mxGeometry relative="1" as="geometry" />
        </mxCell>
        <mxCell id="VR4Ue93Jd8P-YJn3SoLv-45" value="Spawn" style="edgeLabel;html=1;align=center;verticalAlign=middle;resizable=0;points=[];" vertex="1" connectable="0" parent="VR4Ue93Jd8P-YJn3SoLv-44">
          <mxGeometry x="0.0037" y="-1" relative="1" as="geometry">
            <mxPoint x="1" y="1" as="offset" />
          </mxGeometry>
        </mxCell>
        <mxCell id="VR4Ue93Jd8P-YJn3SoLv-52" style="edgeStyle=orthogonalEdgeStyle;rounded=0;orthogonalLoop=1;jettySize=auto;html=1;exitX=0.75;exitY=0;exitDx=0;exitDy=0;entryX=0;entryY=0.75;entryDx=0;entryDy=0;" edge="1" parent="1" source="VR4Ue93Jd8P-YJn3SoLv-1" target="VR4Ue93Jd8P-YJn3SoLv-9">
          <mxGeometry relative="1" as="geometry" />
        </mxCell>
        <mxCell id="VR4Ue93Jd8P-YJn3SoLv-53" value="Inform" style="edgeLabel;html=1;align=center;verticalAlign=middle;resizable=0;points=[];" vertex="1" connectable="0" parent="VR4Ue93Jd8P-YJn3SoLv-52">
          <mxGeometry x="-0.0967" y="-2" relative="1" as="geometry">
            <mxPoint x="1" y="1" as="offset" />
          </mxGeometry>
        </mxCell>
        <object label="GameController" GameController="" id="VR4Ue93Jd8P-YJn3SoLv-1">
          <mxCell style="rounded=0;whiteSpace=wrap;html=1;" vertex="1" parent="1">
            <mxGeometry x="370" y="240" width="150" height="50" as="geometry" />
          </mxCell>
        </object>
        <mxCell id="VR4Ue93Jd8P-YJn3SoLv-27" style="edgeStyle=orthogonalEdgeStyle;rounded=0;orthogonalLoop=1;jettySize=auto;html=1;exitX=0.75;exitY=0;exitDx=0;exitDy=0;entryX=0.75;entryY=1;entryDx=0;entryDy=0;" edge="1" parent="1" source="VR4Ue93Jd8P-YJn3SoLv-5" target="VR4Ue93Jd8P-YJn3SoLv-19">
          <mxGeometry relative="1" as="geometry">
            <Array as="points">
              <mxPoint x="193" y="340" />
              <mxPoint x="193" y="340" />
            </Array>
          </mxGeometry>
        </mxCell>
        <mxCell id="VR4Ue93Jd8P-YJn3SoLv-29" value="Get Health/Damage" style="edgeLabel;html=1;align=center;verticalAlign=middle;resizable=0;points=[];" vertex="1" connectable="0" parent="VR4Ue93Jd8P-YJn3SoLv-27">
          <mxGeometry x="-0.1875" y="-2" relative="1" as="geometry">
            <mxPoint x="1" y="1" as="offset" />
          </mxGeometry>
        </mxCell>
        <mxCell id="VR4Ue93Jd8P-YJn3SoLv-5" value="Hero" style="rounded=0;whiteSpace=wrap;html=1;" vertex="1" parent="1">
          <mxGeometry x="80" y="370" width="150" height="50" as="geometry" />
        </mxCell>
        <mxCell id="VR4Ue93Jd8P-YJn3SoLv-46" style="edgeStyle=orthogonalEdgeStyle;rounded=0;orthogonalLoop=1;jettySize=auto;html=1;exitX=0.25;exitY=0;exitDx=0;exitDy=0;entryX=0.25;entryY=1;entryDx=0;entryDy=0;" edge="1" parent="1" source="VR4Ue93Jd8P-YJn3SoLv-7" target="VR4Ue93Jd8P-YJn3SoLv-14">
          <mxGeometry relative="1" as="geometry" />
        </mxCell>
        <mxCell id="VR4Ue93Jd8P-YJn3SoLv-47" value="Register" style="edgeLabel;html=1;align=center;verticalAlign=middle;resizable=0;points=[];" vertex="1" connectable="0" parent="VR4Ue93Jd8P-YJn3SoLv-46">
          <mxGeometry x="-0.025" y="-2" relative="1" as="geometry">
            <mxPoint as="offset" />
          </mxGeometry>
        </mxCell>
        <mxCell id="VR4Ue93Jd8P-YJn3SoLv-7" value="Card" style="rounded=0;whiteSpace=wrap;html=1;" vertex="1" parent="1">
          <mxGeometry x="660" y="370" width="150" height="50" as="geometry" />
        </mxCell>
        <mxCell id="VR4Ue93Jd8P-YJn3SoLv-36" style="edgeStyle=orthogonalEdgeStyle;rounded=0;orthogonalLoop=1;jettySize=auto;html=1;entryX=1;entryY=0.6;entryDx=0;entryDy=0;exitX=1;exitY=0.6;exitDx=0;exitDy=0;exitPerimeter=0;entryPerimeter=0;" edge="1" parent="1" source="VR4Ue93Jd8P-YJn3SoLv-9" target="VR4Ue93Jd8P-YJn3SoLv-14">
          <mxGeometry relative="1" as="geometry">
            <mxPoint x="819.95" y="130" as="sourcePoint" />
            <mxPoint x="819.95" y="240" as="targetPoint" />
            <Array as="points">
              <mxPoint x="830" y="110" />
              <mxPoint x="830" y="270" />
            </Array>
          </mxGeometry>
        </mxCell>
        <mxCell id="VR4Ue93Jd8P-YJn3SoLv-37" value="Cast" style="edgeLabel;html=1;align=center;verticalAlign=middle;resizable=0;points=[];" vertex="1" connectable="0" parent="VR4Ue93Jd8P-YJn3SoLv-36">
          <mxGeometry x="-0.1" y="1" relative="1" as="geometry">
            <mxPoint as="offset" />
          </mxGeometry>
        </mxCell>
        <mxCell id="VR4Ue93Jd8P-YJn3SoLv-9" value="Console" style="rounded=0;whiteSpace=wrap;html=1;" vertex="1" parent="1">
          <mxGeometry x="660" y="80" width="150" height="50" as="geometry" />
        </mxCell>
        <mxCell id="VR4Ue93Jd8P-YJn3SoLv-41" style="edgeStyle=orthogonalEdgeStyle;rounded=0;orthogonalLoop=1;jettySize=auto;html=1;exitX=0.5;exitY=0;exitDx=0;exitDy=0;entryX=0.5;entryY=1;entryDx=0;entryDy=0;" edge="1" parent="1" source="VR4Ue93Jd8P-YJn3SoLv-14" target="VR4Ue93Jd8P-YJn3SoLv-9">
          <mxGeometry relative="1" as="geometry" />
        </mxCell>
        <mxCell id="VR4Ue93Jd8P-YJn3SoLv-42" value="Show&lt;br&gt;Available card" style="edgeLabel;html=1;align=center;verticalAlign=middle;resizable=0;points=[];" vertex="1" connectable="0" parent="VR4Ue93Jd8P-YJn3SoLv-41">
          <mxGeometry x="0.0636" y="-1" relative="1" as="geometry">
            <mxPoint as="offset" />
          </mxGeometry>
        </mxCell>
        <mxCell id="VR4Ue93Jd8P-YJn3SoLv-54" style="edgeStyle=orthogonalEdgeStyle;rounded=0;orthogonalLoop=1;jettySize=auto;html=1;exitX=0.75;exitY=1;exitDx=0;exitDy=0;entryX=0.75;entryY=0;entryDx=0;entryDy=0;" edge="1" parent="1" source="VR4Ue93Jd8P-YJn3SoLv-14" target="VR4Ue93Jd8P-YJn3SoLv-7">
          <mxGeometry relative="1" as="geometry" />
        </mxCell>
        <mxCell id="VR4Ue93Jd8P-YJn3SoLv-55" value="Pos-Effect" style="edgeLabel;html=1;align=center;verticalAlign=middle;resizable=0;points=[];" vertex="1" connectable="0" parent="VR4Ue93Jd8P-YJn3SoLv-54">
          <mxGeometry x="0.175" y="2" relative="1" as="geometry">
            <mxPoint as="offset" />
          </mxGeometry>
        </mxCell>
        <object label="CardManager" GameController="" id="VR4Ue93Jd8P-YJn3SoLv-14">
          <mxCell style="rounded=0;whiteSpace=wrap;html=1;" vertex="1" parent="1">
            <mxGeometry x="660" y="240" width="150" height="50" as="geometry" />
          </mxCell>
        </object>
        <mxCell id="VR4Ue93Jd8P-YJn3SoLv-26" style="edgeStyle=orthogonalEdgeStyle;rounded=0;orthogonalLoop=1;jettySize=auto;html=1;exitX=0.25;exitY=1;exitDx=0;exitDy=0;entryX=0.25;entryY=0;entryDx=0;entryDy=0;" edge="1" parent="1" source="VR4Ue93Jd8P-YJn3SoLv-19" target="VR4Ue93Jd8P-YJn3SoLv-5">
          <mxGeometry relative="1" as="geometry" />
        </mxCell>
        <mxCell id="VR4Ue93Jd8P-YJn3SoLv-28" value="Update Health" style="edgeLabel;html=1;align=center;verticalAlign=middle;resizable=0;points=[];" vertex="1" connectable="0" parent="VR4Ue93Jd8P-YJn3SoLv-26">
          <mxGeometry x="-0.1625" y="1" relative="1" as="geometry">
            <mxPoint as="offset" />
          </mxGeometry>
        </mxCell>
        <mxCell id="VR4Ue93Jd8P-YJn3SoLv-31" style="edgeStyle=orthogonalEdgeStyle;rounded=0;orthogonalLoop=1;jettySize=auto;html=1;exitX=1;exitY=0.25;exitDx=0;exitDy=0;entryX=0;entryY=0.25;entryDx=0;entryDy=0;" edge="1" parent="1" source="VR4Ue93Jd8P-YJn3SoLv-19" target="VR4Ue93Jd8P-YJn3SoLv-1">
          <mxGeometry relative="1" as="geometry" />
        </mxCell>
        <mxCell id="VR4Ue93Jd8P-YJn3SoLv-32" value="Notify Death" style="edgeLabel;html=1;align=center;verticalAlign=middle;resizable=0;points=[];" vertex="1" connectable="0" parent="VR4Ue93Jd8P-YJn3SoLv-31">
          <mxGeometry x="0.2" y="2" relative="1" as="geometry">
            <mxPoint as="offset" />
          </mxGeometry>
        </mxCell>
        <mxCell id="VR4Ue93Jd8P-YJn3SoLv-56" style="edgeStyle=orthogonalEdgeStyle;rounded=0;orthogonalLoop=1;jettySize=auto;html=1;exitX=0.75;exitY=0;exitDx=0;exitDy=0;entryX=0.25;entryY=0;entryDx=0;entryDy=0;" edge="1" parent="1" source="VR4Ue93Jd8P-YJn3SoLv-19" target="VR4Ue93Jd8P-YJn3SoLv-1">
          <mxGeometry relative="1" as="geometry">
            <Array as="points">
              <mxPoint x="193" y="220" />
              <mxPoint x="408" y="220" />
            </Array>
          </mxGeometry>
        </mxCell>
        <mxCell id="VR4Ue93Jd8P-YJn3SoLv-57" value="Deal Damage" style="edgeLabel;html=1;align=center;verticalAlign=middle;resizable=0;points=[];" vertex="1" connectable="0" parent="VR4Ue93Jd8P-YJn3SoLv-56">
          <mxGeometry x="-0.2941" y="-1" relative="1" as="geometry">
            <mxPoint as="offset" />
          </mxGeometry>
        </mxCell>
        <object label="HeroManager" GameController="" id="VR4Ue93Jd8P-YJn3SoLv-19">
          <mxCell style="rounded=0;whiteSpace=wrap;html=1;" vertex="1" parent="1">
            <mxGeometry x="80" y="240" width="150" height="50" as="geometry" />
          </mxCell>
        </object>
        <mxCell id="VR4Ue93Jd8P-YJn3SoLv-58" value="" style="endArrow=classic;startArrow=classic;html=1;rounded=0;entryX=0;entryY=0.2;entryDx=0;entryDy=0;entryPerimeter=0;exitX=1;exitY=0.2;exitDx=0;exitDy=0;exitPerimeter=0;" edge="1" parent="1" source="VR4Ue93Jd8P-YJn3SoLv-1" target="VR4Ue93Jd8P-YJn3SoLv-14">
          <mxGeometry width="50" height="50" relative="1" as="geometry">
            <mxPoint x="520" y="250" as="sourcePoint" />
            <mxPoint x="670" y="250" as="targetPoint" />
          </mxGeometry>
        </mxCell>
        <mxCell id="VR4Ue93Jd8P-YJn3SoLv-59" value="Damage" style="edgeLabel;html=1;align=center;verticalAlign=middle;resizable=0;points=[];" vertex="1" connectable="0" parent="VR4Ue93Jd8P-YJn3SoLv-58">
          <mxGeometry x="0.0794" y="1" relative="1" as="geometry">
            <mxPoint as="offset" />
          </mxGeometry>
        </mxCell>
      </root>
    </mxGraphModel>
  </diagram>
</mxfile>
